<svg width="102" height="100" viewBox="0 0 102 100" fill="none" xmlns="http://www.w3.org/2000/svg">
<g clip-path="url(#clip0_8_91)" filter="url(#filter0_g_8_91)">
<path d="M4.5979 54.5209L35.0979 26.0209C21.1053 6.89033 10.0979 -0.479086 7.59787 4.52088C5.09784 9.52084 0.584088 35.4674 4.5979 54.5209Z" fill="#000212" stroke="#000212" stroke-linejoin="round"/>
<path d="M97.5 53.5209L67 25.0209C80.9926 5.89033 92 -1.47909 94.5 3.52088C97.0001 8.52084 101.514 34.4674 97.5 53.5209Z" fill="#000212" stroke="#000212" stroke-linejoin="round"/>
<path d="M101 60H50.9999V90C85.9999 90 101 82.5 101 60Z" fill="#000212"/>
<path d="M50.9999 60H0.999908C0.999933 80 16 90 50.9999 90V60Z" fill="#000212"/>
<path d="M0.999908 60H50.9999V25C10.5 25 1.00621 33.2659 0.999908 60Z" fill="#000212"/>
<path d="M50.9999 60H101C101 35 91 25 50.9999 25V60Z" fill="#000212"/>
<path d="M0.999908 60H50.9999M0.999908 60C1.00621 33.2659 10.5 25 50.9999 25M0.999908 60C0.999933 80 16 90 50.9999 90M101 60H50.9999M101 60C101 82.5 85.9999 90 50.9999 90M101 60C101 35 91 25 50.9999 25M50.9999 60V25M50.9999 60V90" stroke="#000212" stroke-linejoin="round"/>
<path d="M42.3536 74.6464C42.3477 74.764 42.3416 74.8772 42.3227 74.975C42.3033 75.0733 42.269 75.152 42.2105 75.2105C42.152 75.269 42.0733 75.3033 41.975 75.3227C41.8772 75.3416 41.764 75.3477 41.6464 75.3536C40.6043 75.3957 39.5893 75.4107 38.6014 75.3986C29.7103 75.2897 23.0147 72.9853 18.5147 68.4853C14.0147 63.9853 11.7294 57.2706 11.6587 48.3413C11.6508 47.3492 11.6703 46.3297 11.7172 45.2828C11.7223 45.1888 11.7275 45.0982 11.7427 45.0201C11.7583 44.9416 11.7857 44.8789 11.8323 44.8323C11.8789 44.7857 11.9416 44.7583 12.0201 44.7427C12.0982 44.7275 12.1888 44.7223 12.2828 44.7172C13.3297 44.6703 14.3492 44.6508 15.3413 44.6587C24.2706 44.7294 30.9853 47.0147 35.4853 51.5147C39.9853 56.0147 42.2897 62.7103 42.3986 71.6014C42.4107 72.5893 42.3957 73.6043 42.3536 74.6464Z" fill="#F18522"/>
<path d="M25.181 50.996C25.4748 50.6722 25.7651 50.3617 26.0685 50.133C26.3735 49.9042 26.6815 49.776 27 49.7768C27.3185 49.7775 27.6265 49.907 27.9315 50.1371C28.2348 50.3672 28.5251 50.6789 28.819 51.004C29.0858 51.3046 29.3392 51.6052 29.5793 51.9057C31.7403 54.6105 32.8207 57.3129 32.8207 60.0129C32.8207 62.7129 31.7403 65.4105 29.5793 68.1057C29.3392 68.4052 29.0858 68.7046 28.819 69.004C28.5251 69.3278 28.2348 69.6383 27.9315 69.867C27.6265 70.0958 27.3185 70.224 27 70.2232C26.6815 70.2225 26.3735 70.093 26.0685 69.8629C25.7651 69.6328 25.4748 69.3211 25.181 68.996C24.9142 68.6954 24.6608 68.3948 24.4207 68.0943C22.2597 65.3895 21.1792 62.6871 21.1792 59.9871C21.1792 57.2871 22.2597 54.5895 24.4207 51.8943C24.6608 51.5948 24.9142 51.2954 25.181 50.996Z" fill="#000212"/>
<path d="M59.6464 74.6464C59.6523 74.764 59.6584 74.8772 59.6773 74.975C59.6967 75.0733 59.731 75.152 59.7895 75.2105C59.848 75.269 59.9267 75.3033 60.025 75.3227C60.1228 75.3416 60.236 75.3477 60.3536 75.3536C61.3957 75.3957 62.4107 75.4107 63.3986 75.3986C72.2897 75.2897 78.9853 72.9853 83.4853 68.4853C87.9853 63.9853 90.2706 57.2706 90.3413 48.3413C90.3492 47.3492 90.3297 46.3297 90.2828 45.2828C90.2777 45.1888 90.2725 45.0982 90.2573 45.0201C90.2417 44.9416 90.2143 44.8789 90.1677 44.8323C90.1211 44.7857 90.0584 44.7583 89.9799 44.7427C89.9018 44.7275 89.8112 44.7223 89.7172 44.7172C88.6703 44.6703 87.6508 44.6508 86.6587 44.6587C77.7294 44.7294 71.0147 47.0147 66.5147 51.5147C62.0147 56.0147 59.7103 62.7103 59.6014 71.6014C59.5893 72.5893 59.6043 73.6043 59.6464 74.6464Z" fill="#F18522"/>
<path d="M76.819 50.996C76.5252 50.6722 76.2349 50.3617 75.9315 50.133C75.6265 49.9042 75.3185 49.776 75 49.7768C74.6815 49.7775 74.3735 49.907 74.0685 50.1371C73.7652 50.3672 73.4749 50.6789 73.181 51.004C72.9142 51.3046 72.6608 51.6052 72.4207 51.9057C70.2597 54.6105 69.1793 57.3129 69.1793 60.0129C69.1793 62.7129 70.2597 65.4105 72.4207 68.1057C72.6608 68.4052 72.9142 68.7046 73.181 69.004C73.4749 69.3278 73.7652 69.6383 74.0685 69.867C74.3735 70.0958 74.6815 70.224 75 70.2232C75.3185 70.2225 75.6265 70.093 75.9315 69.8629C76.2349 69.6328 76.5252 69.3211 76.819 68.996C77.0858 68.6954 77.3392 68.3948 77.5793 68.0943C79.7403 65.3895 80.8208 62.6871 80.8208 59.9871C80.8208 57.2871 79.7403 54.5895 77.5793 51.8943C77.3392 51.5948 77.0858 51.2954 76.819 50.996Z" fill="#000212"/>
</g>
<defs>
<filter id="filter0_g_8_91" x="0" y="-1" width="102" height="102" filterUnits="userSpaceOnUse" color-interpolation-filters="sRGB">
<feFlood flood-opacity="0" result="BackgroundImageFix"/>
<feBlend mode="normal" in="SourceGraphic" in2="BackgroundImageFix" result="shape"/>
<feTurbulence type="fractalNoise" baseFrequency="2 2" numOctaves="3" seed="3463" />
<feDisplacementMap in="shape" scale="2" xChannelSelector="R" yChannelSelector="G" result="displacedImage" width="100%" height="100%" />
<feMerge result="effect1_texture_8_91">
<feMergeNode in="displacedImage"/>
</feMerge>
</filter>
<clipPath id="clip0_8_91">
<rect width="100" height="100" fill="white" transform="translate(1)"/>
</clipPath>
</defs>
</svg>
