<svg width="150" height="70" viewBox="0 0 150 70" fill="none" xmlns="http://www.w3.org/2000/svg">
    <g filter="url(#filter0_g_3_768)">
        <path d="M80.4445 51.9845C80.5525 53.1631 80.6566 54.2939 80.8622 55.2551C81.0729 56.2213 81.4098 56.9801 81.9795 57.5435C82.5492 58.1068 83.3118 58.4351 84.2804 58.6349C85.2438 58.8296 86.3757 58.9208 87.5555 59.0155C89.0453 59.1207 90.4948 59.186 91.904 59.2115C104.587 59.441 114.006 56.4432 120.161 50.2182C126.316 43.9932 129.015 34.3511 128.258 21.292C128.174 19.841 128.047 18.3478 127.878 16.8124C127.765 15.8676 127.657 14.9632 127.486 14.2047C127.31 13.4417 127.047 12.8513 126.603 12.4126C126.16 11.9739 125.566 11.718 124.801 11.5504C124.041 11.3873 123.135 11.2904 122.189 11.1876C120.652 11.0355 119.158 10.9257 117.706 10.858C104.639 10.2489 95.0279 13.0568 88.8728 19.2818C82.7178 25.5068 79.8266 34.959 80.1994 47.6385C80.2408 49.0473 80.3225 50.496 80.4445 51.9845Z" fill="#F18522"/>
        <path d="M106.728 18.9214C106.455 18.5786 106.183 18.2494 105.89 18.0028C105.596 17.7561 105.291 17.6116 104.971 17.5979C104.651 17.5842 104.335 17.7024 104.023 17.9232C103.711 18.1441 103.414 18.449 103.115 18.7674C102.637 19.2864 102.181 19.8064 101.748 20.3274C97.85 25.0162 95.8058 29.7839 95.6151 34.6307C95.4244 39.4775 97.0872 44.4032 100.603 49.408C100.994 49.964 101.408 50.5211 101.844 51.0791C102.117 51.4219 102.389 51.7511 102.682 51.9977C102.976 52.2444 103.281 52.3889 103.602 52.4026C103.922 52.4162 104.237 52.2981 104.55 52.0773C104.861 51.8564 105.158 51.5515 105.457 51.2331C105.936 50.7141 106.392 50.1941 106.825 49.6731C110.723 44.9843 112.767 40.2165 112.957 35.3698C113.148 30.523 111.485 25.5973 107.969 20.5925C107.578 20.0364 107.165 19.4794 106.728 18.9214Z" fill="#000212"/>
        <path d="M23.7823 11.9137C22.6043 12.0146 21.4734 12.1125 20.5095 12.3162C19.5407 12.5249 18.7775 12.8636 18.2111 13.4364C17.6446 14.0093 17.3146 14.7763 17.1169 15.7474C16.924 16.7135 16.8389 17.8455 16.7513 19.0246C16.6545 20.5226 16.5975 21.9803 16.5803 23.3978C16.4259 36.1548 19.4986 45.6479 25.7986 51.8771C32.0986 58.1063 41.8157 60.8796 54.9498 60.1971C56.4092 60.1212 57.9107 60.0027 59.4544 59.8415C60.3989 59.7337 61.3033 59.6317 62.064 59.4615C62.8291 59.2869 63.423 59.0228 63.8643 58.5766C64.3055 58.1304 64.5628 57.5335 64.7288 56.7665C64.8903 56.0039 64.9822 55.0984 65.0793 54.1528C65.223 52.6073 65.3245 51.1046 65.3839 49.6445C65.918 36.5035 63.035 26.8183 56.7351 20.5891C50.4351 14.3599 40.9078 11.3946 28.1534 11.6932C26.7362 11.7264 25.2792 11.7999 23.7823 11.9137Z" fill="#F18522"/>
        <path d="M43.7284 19.9214C43.4553 19.5786 43.1832 19.2494 42.8904 19.0028C42.5961 18.7561 42.2913 18.6116 41.9709 18.5979C41.6505 18.5842 41.3354 18.7024 41.0227 18.9232C40.7115 19.1441 40.4145 19.449 40.1154 19.7674C39.6366 20.2864 39.1806 20.8064 38.7475 21.3274C34.85 26.0162 32.8058 30.7839 32.6151 35.6307C32.4244 40.4775 34.0872 45.4032 37.6034 50.408C37.9941 50.964 38.4077 51.5211 38.8442 52.0791C39.1172 52.4219 39.3893 52.7511 39.6821 52.9977C39.9765 53.2444 40.2812 53.3889 40.6016 53.4026C40.922 53.4162 41.2371 53.2981 41.5498 53.0773C41.861 52.8564 42.158 52.5515 42.4571 52.2331C42.936 51.7141 43.3919 51.1941 43.825 50.6731C47.7226 45.9843 49.7667 41.2165 49.9574 36.3698C50.1481 31.523 48.4853 26.5973 44.9691 21.5925C44.5784 21.0364 44.1648 20.4794 43.7284 19.9214Z" fill="#000212"/>
    </g>
    <defs>
        <filter id="filter0_g_3_768" x="0" y="0" width="152" height="152" filterUnits="userSpaceOnUse" color-interpolation-filters="sRGB">
            <feFlood flood-opacity="0" result="BackgroundImageFix"/>
            <feBlend mode="normal" in="SourceGraphic" in2="BackgroundImageFix" result="shape"/>
            <feTurbulence type="fractalNoise" baseFrequency="2 2" numOctaves="3" seed="3463" />
            <feDisplacementMap in="shape" scale="2" xChannelSelector="R" yChannelSelector="G" result="displacedImage" width="150" height="70" />
            <feMerge result="effect1_texture_3_768">
                <feMergeNode in="displacedImage"/>
            </feMerge>
        </filter>
    </defs>
</svg>
